<mxfile host="app.diagrams.net" modified="2023-11-28T14:33:17.979Z" agent="Mozilla/5.0 (Macintosh; Intel Mac OS X 10_15_7) AppleWebKit/537.36 (KHTML, like Gecko) Chrome/119.0.0.0 Safari/537.36" etag="G9KTHy-5E_F5HmvSWXLP" version="22.1.4" type="github">
  <diagram name="Page-1" id="oo4sw1ZovJsQ9x0L9Uaq">
    <mxGraphModel dx="1536" dy="880" grid="1" gridSize="10" guides="1" tooltips="1" connect="1" arrows="1" fold="1" page="1" pageScale="1" pageWidth="850" pageHeight="1100" math="0" shadow="0">
      <root>
        <mxCell id="0" />
        <mxCell id="1" parent="0" />
        <mxCell id="sCwukaSVy6SD4ue5wl9c-1" value="Region us-east-1" style="points=[[0,0],[0.25,0],[0.5,0],[0.75,0],[1,0],[1,0.25],[1,0.5],[1,0.75],[1,1],[0.75,1],[0.5,1],[0.25,1],[0,1],[0,0.75],[0,0.5],[0,0.25]];outlineConnect=0;gradientColor=none;html=1;whiteSpace=wrap;fontSize=12;fontStyle=0;shape=mxgraph.aws4.group;grIcon=mxgraph.aws4.group_region;strokeColor=#147EBA;fillColor=none;verticalAlign=top;align=left;spacingLeft=30;fontColor=#147EBA;dashed=0;" vertex="1" parent="1">
          <mxGeometry x="100" y="40" width="660" height="830" as="geometry" />
        </mxCell>
        <mxCell id="sCwukaSVy6SD4ue5wl9c-2" value="Availability Zone&#xa;us-east-1a" style="fillColor=none;strokeColor=#147EBA;dashed=1;verticalAlign=top;fontStyle=0;fontColor=#147EBA;" vertex="1" parent="1">
          <mxGeometry x="220" y="70" width="200" height="780" as="geometry" />
        </mxCell>
        <mxCell id="sCwukaSVy6SD4ue5wl9c-3" value="VPC" style="points=[[0,0],[0.25,0],[0.5,0],[0.75,0],[1,0],[1,0.25],[1,0.5],[1,0.75],[1,1],[0.75,1],[0.5,1],[0.25,1],[0,1],[0,0.75],[0,0.5],[0,0.25]];outlineConnect=0;gradientColor=none;html=1;whiteSpace=wrap;fontSize=12;fontStyle=0;shape=mxgraph.aws4.group;grIcon=mxgraph.aws4.group_vpc;strokeColor=#248814;fillColor=none;verticalAlign=top;align=left;spacingLeft=30;fontColor=#AAB7B8;dashed=0;" vertex="1" parent="1">
          <mxGeometry x="180" y="110" width="540" height="730" as="geometry" />
        </mxCell>
        <mxCell id="sCwukaSVy6SD4ue5wl9c-4" value="Availability Zone&#xa;us-east-1b" style="fillColor=none;strokeColor=#147EBA;dashed=1;verticalAlign=top;fontStyle=0;fontColor=#147EBA;" vertex="1" parent="1">
          <mxGeometry x="480" y="70" width="200" height="780" as="geometry" />
        </mxCell>
        <mxCell id="sCwukaSVy6SD4ue5wl9c-5" value="Private subnet" style="points=[[0,0],[0.25,0],[0.5,0],[0.75,0],[1,0],[1,0.25],[1,0.5],[1,0.75],[1,1],[0.75,1],[0.5,1],[0.25,1],[0,1],[0,0.75],[0,0.5],[0,0.25]];outlineConnect=0;gradientColor=none;html=1;whiteSpace=wrap;fontSize=12;fontStyle=0;shape=mxgraph.aws4.group;grIcon=mxgraph.aws4.group_security_group;grStroke=0;strokeColor=#147EBA;fillColor=#E6F2F8;verticalAlign=top;align=left;spacingLeft=30;fontColor=#147EBA;dashed=0;" vertex="1" parent="1">
          <mxGeometry x="500" y="440" width="160" height="390" as="geometry" />
        </mxCell>
        <mxCell id="sCwukaSVy6SD4ue5wl9c-6" value="Private subnet" style="points=[[0,0],[0.25,0],[0.5,0],[0.75,0],[1,0],[1,0.25],[1,0.5],[1,0.75],[1,1],[0.75,1],[0.5,1],[0.25,1],[0,1],[0,0.75],[0,0.5],[0,0.25]];outlineConnect=0;gradientColor=none;html=1;whiteSpace=wrap;fontSize=12;fontStyle=0;shape=mxgraph.aws4.group;grIcon=mxgraph.aws4.group_security_group;grStroke=0;strokeColor=#147EBA;fillColor=#E6F2F8;verticalAlign=top;align=left;spacingLeft=30;fontColor=#147EBA;dashed=0;" vertex="1" parent="1">
          <mxGeometry x="240" y="440" width="160" height="390" as="geometry" />
        </mxCell>
        <mxCell id="sCwukaSVy6SD4ue5wl9c-7" value="lambda function security group" style="fillColor=none;strokeColor=#DD3522;verticalAlign=top;fontStyle=0;fontColor=#DD3522;" vertex="1" parent="1">
          <mxGeometry x="250" y="720" width="400" height="90" as="geometry" />
        </mxCell>
        <mxCell id="sCwukaSVy6SD4ue5wl9c-8" value="db server security group" style="fillColor=none;strokeColor=#DD3522;verticalAlign=top;fontStyle=0;fontColor=#DD3522;" vertex="1" parent="1">
          <mxGeometry x="250" y="610" width="140" height="90" as="geometry" />
        </mxCell>
        <mxCell id="sCwukaSVy6SD4ue5wl9c-9" value="Auto Scaling group" style="points=[[0,0],[0.25,0],[0.5,0],[0.75,0],[1,0],[1,0.25],[1,0.5],[1,0.75],[1,1],[0.75,1],[0.5,1],[0.25,1],[0,1],[0,0.75],[0,0.5],[0,0.25]];outlineConnect=0;gradientColor=none;html=1;whiteSpace=wrap;fontSize=12;fontStyle=0;shape=mxgraph.aws4.groupCenter;grIcon=mxgraph.aws4.group_auto_scaling_group;grStroke=1;strokeColor=#D86613;fillColor=none;verticalAlign=top;align=center;fontColor=#D86613;dashed=1;spacingTop=25;" vertex="1" parent="1">
          <mxGeometry x="230" y="480" width="440" height="120" as="geometry" />
        </mxCell>
        <mxCell id="sCwukaSVy6SD4ue5wl9c-10" value="&#xa;&#xa;&#xa;&#xa;web server security group" style="fillColor=none;strokeColor=#DD3522;verticalAlign=top;fontStyle=0;fontColor=#DD3522;" vertex="1" parent="1">
          <mxGeometry x="250" y="490" width="400" height="90" as="geometry" />
        </mxCell>
        <mxCell id="sCwukaSVy6SD4ue5wl9c-11" value="Public subnet" style="points=[[0,0],[0.25,0],[0.5,0],[0.75,0],[1,0],[1,0.25],[1,0.5],[1,0.75],[1,1],[0.75,1],[0.5,1],[0.25,1],[0,1],[0,0.75],[0,0.5],[0,0.25]];outlineConnect=0;gradientColor=none;html=1;whiteSpace=wrap;fontSize=12;fontStyle=0;shape=mxgraph.aws4.group;grIcon=mxgraph.aws4.group_security_group;grStroke=0;strokeColor=#248814;fillColor=#E9F3E6;verticalAlign=top;align=left;spacingLeft=30;fontColor=#248814;dashed=0;" vertex="1" parent="1">
          <mxGeometry x="240" y="130" width="160" height="300" as="geometry" />
        </mxCell>
        <mxCell id="sCwukaSVy6SD4ue5wl9c-12" value="Public subnet" style="points=[[0,0],[0.25,0],[0.5,0],[0.75,0],[1,0],[1,0.25],[1,0.5],[1,0.75],[1,1],[0.75,1],[0.5,1],[0.25,1],[0,1],[0,0.75],[0,0.5],[0,0.25]];outlineConnect=0;gradientColor=none;html=1;whiteSpace=wrap;fontSize=12;fontStyle=0;shape=mxgraph.aws4.group;grIcon=mxgraph.aws4.group_security_group;grStroke=0;strokeColor=#248814;fillColor=#E9F3E6;verticalAlign=top;align=left;spacingLeft=30;fontColor=#248814;dashed=0;" vertex="1" parent="1">
          <mxGeometry x="500" y="130" width="160" height="300" as="geometry" />
        </mxCell>
        <mxCell id="sCwukaSVy6SD4ue5wl9c-13" value="S3 gateway" style="outlineConnect=0;fontColor=#232F3E;gradientColor=none;fillColor=#5A30B5;strokeColor=none;dashed=0;verticalLabelPosition=bottom;verticalAlign=top;align=center;html=1;fontSize=12;fontStyle=0;aspect=fixed;pointerEvents=1;shape=mxgraph.aws4.endpoints;" vertex="1" parent="1">
          <mxGeometry x="160" y="270" width="40" height="40" as="geometry" />
        </mxCell>
        <mxCell id="sCwukaSVy6SD4ue5wl9c-14" value="" style="outlineConnect=0;fontColor=#232F3E;gradientColor=none;fillColor=#5A30B5;strokeColor=none;dashed=0;verticalLabelPosition=bottom;verticalAlign=top;align=center;html=1;fontSize=12;fontStyle=0;aspect=fixed;pointerEvents=1;shape=mxgraph.aws4.application_load_balancer;" vertex="1" parent="1">
          <mxGeometry x="295" y="265" width="40" height="40" as="geometry" />
        </mxCell>
        <mxCell id="sCwukaSVy6SD4ue5wl9c-15" value="" style="outlineConnect=0;fontColor=#232F3E;gradientColor=none;fillColor=#5A30B5;strokeColor=none;dashed=0;verticalLabelPosition=bottom;verticalAlign=top;align=center;html=1;fontSize=12;fontStyle=0;aspect=fixed;pointerEvents=1;shape=mxgraph.aws4.application_load_balancer;" vertex="1" parent="1">
          <mxGeometry x="561" y="265" width="40" height="40" as="geometry" />
        </mxCell>
        <mxCell id="sCwukaSVy6SD4ue5wl9c-16" value="Application Load Balancer" style="fillColor=none;strokeColor=#5A6C86;dashed=1;verticalAlign=top;fontStyle=0;fontColor=#5A6C86;" vertex="1" parent="1">
          <mxGeometry x="250" y="235" width="400" height="85" as="geometry" />
        </mxCell>
        <mxCell id="sCwukaSVy6SD4ue5wl9c-17" value="EC2 DB server" style="sketch=0;outlineConnect=0;fontColor=#232F3E;gradientColor=none;fillColor=#ED7100;strokeColor=none;dashed=0;verticalLabelPosition=bottom;verticalAlign=top;align=center;html=1;fontSize=12;fontStyle=0;aspect=fixed;pointerEvents=1;shape=mxgraph.aws4.db_on_instance2;" vertex="1" parent="1">
          <mxGeometry x="300" y="635" width="40" height="40" as="geometry" />
        </mxCell>
        <mxCell id="sCwukaSVy6SD4ue5wl9c-18" value="S3 bucket" style="sketch=0;points=[[0,0,0],[0.25,0,0],[0.5,0,0],[0.75,0,0],[1,0,0],[0,1,0],[0.25,1,0],[0.5,1,0],[0.75,1,0],[1,1,0],[0,0.25,0],[0,0.5,0],[0,0.75,0],[1,0.25,0],[1,0.5,0],[1,0.75,0]];outlineConnect=0;fontColor=#232F3E;fillColor=#7AA116;strokeColor=#ffffff;dashed=0;verticalLabelPosition=bottom;verticalAlign=top;align=center;html=1;fontSize=12;fontStyle=0;aspect=fixed;shape=mxgraph.aws4.resourceIcon;resIcon=mxgraph.aws4.s3;" vertex="1" parent="1">
          <mxGeometry x="160" y="340" width="40" height="40" as="geometry" />
        </mxCell>
        <mxCell id="sCwukaSVy6SD4ue5wl9c-19" value="EC2 web servers" style="sketch=0;outlineConnect=0;fontColor=#232F3E;gradientColor=none;fillColor=#ED7100;strokeColor=none;dashed=0;verticalLabelPosition=bottom;verticalAlign=top;align=center;html=1;fontSize=12;fontStyle=0;aspect=fixed;pointerEvents=1;shape=mxgraph.aws4.instances;" vertex="1" parent="1">
          <mxGeometry x="300" y="510" width="40" height="40" as="geometry" />
        </mxCell>
        <mxCell id="sCwukaSVy6SD4ue5wl9c-20" value="EC2 web servers" style="sketch=0;outlineConnect=0;fontColor=#232F3E;gradientColor=none;fillColor=#ED7100;strokeColor=none;dashed=0;verticalLabelPosition=bottom;verticalAlign=top;align=center;html=1;fontSize=12;fontStyle=0;aspect=fixed;pointerEvents=1;shape=mxgraph.aws4.instances;" vertex="1" parent="1">
          <mxGeometry x="560" y="510" width="40" height="40" as="geometry" />
        </mxCell>
        <mxCell id="sCwukaSVy6SD4ue5wl9c-21" value="" style="outlineConnect=0;fontColor=#232F3E;gradientColor=none;fillColor=#5A30B5;strokeColor=none;dashed=0;verticalLabelPosition=bottom;verticalAlign=top;align=center;html=1;fontSize=12;fontStyle=0;aspect=fixed;pointerEvents=1;shape=mxgraph.aws4.internet_gateway;" vertex="1" parent="1">
          <mxGeometry x="430" y="80" width="40" height="40" as="geometry" />
        </mxCell>
        <mxCell id="sCwukaSVy6SD4ue5wl9c-22" value="load balancer security group" style="fillColor=none;strokeColor=#DD3522;verticalAlign=top;fontStyle=0;fontColor=#DD3522;" vertex="1" parent="1">
          <mxGeometry x="260" y="260" width="380" height="50" as="geometry" />
        </mxCell>
        <mxCell id="sCwukaSVy6SD4ue5wl9c-23" value="" style="group" vertex="1" connectable="0" parent="1">
          <mxGeometry x="250" y="330" width="140" height="90" as="geometry" />
        </mxCell>
        <mxCell id="sCwukaSVy6SD4ue5wl9c-24" value="Security group" style="fillColor=none;strokeColor=#DD3522;verticalAlign=top;fontStyle=0;fontColor=#DD3522;" vertex="1" parent="sCwukaSVy6SD4ue5wl9c-23">
          <mxGeometry width="140" height="90" as="geometry" />
        </mxCell>
        <mxCell id="sCwukaSVy6SD4ue5wl9c-25" value="Bastion host" style="sketch=0;outlineConnect=0;fontColor=#232F3E;gradientColor=none;fillColor=#ED7100;strokeColor=none;dashed=0;verticalLabelPosition=bottom;verticalAlign=top;align=center;html=1;fontSize=12;fontStyle=0;aspect=fixed;pointerEvents=1;shape=mxgraph.aws4.instance2;" vertex="1" parent="sCwukaSVy6SD4ue5wl9c-23">
          <mxGeometry x="50" y="25" width="40" height="40" as="geometry" />
        </mxCell>
        <mxCell id="sCwukaSVy6SD4ue5wl9c-26" value="NAT gateway" style="outlineConnect=0;fontColor=#232F3E;gradientColor=none;fillColor=#5A30B5;strokeColor=none;dashed=0;verticalLabelPosition=bottom;verticalAlign=top;align=center;html=1;fontSize=12;fontStyle=0;aspect=fixed;pointerEvents=1;shape=mxgraph.aws4.nat_gateway;" vertex="1" parent="1">
          <mxGeometry x="300" y="160" width="40" height="40" as="geometry" />
        </mxCell>
        <mxCell id="sCwukaSVy6SD4ue5wl9c-27" value="DynamoDB" style="sketch=0;points=[[0,0,0],[0.25,0,0],[0.5,0,0],[0.75,0,0],[1,0,0],[0,1,0],[0.25,1,0],[0.5,1,0],[0.75,1,0],[1,1,0],[0,0.25,0],[0,0.5,0],[0,0.75,0],[1,0.25,0],[1,0.5,0],[1,0.75,0]];outlineConnect=0;fontColor=#232F3E;fillColor=#C925D1;strokeColor=#ffffff;dashed=0;verticalLabelPosition=bottom;verticalAlign=top;align=center;html=1;fontSize=12;fontStyle=0;aspect=fixed;shape=mxgraph.aws4.resourceIcon;resIcon=mxgraph.aws4.dynamodb;" vertex="1" parent="1">
          <mxGeometry x="120" y="800" width="40" height="40" as="geometry" />
        </mxCell>
        <mxCell id="sCwukaSVy6SD4ue5wl9c-28" value="Lambda function" style="sketch=0;outlineConnect=0;fontColor=#232F3E;gradientColor=none;fillColor=#ED7100;strokeColor=none;dashed=0;verticalLabelPosition=bottom;verticalAlign=top;align=center;html=1;fontSize=12;fontStyle=0;aspect=fixed;pointerEvents=1;shape=mxgraph.aws4.lambda_function;" vertex="1" parent="1">
          <mxGeometry x="300" y="740" width="40" height="40" as="geometry" />
        </mxCell>
        <mxCell id="sCwukaSVy6SD4ue5wl9c-29" style="edgeStyle=orthogonalEdgeStyle;rounded=0;orthogonalLoop=1;jettySize=auto;html=1;dashed=1;dashPattern=8 8;" edge="1" parent="1" source="sCwukaSVy6SD4ue5wl9c-30" target="sCwukaSVy6SD4ue5wl9c-27">
          <mxGeometry relative="1" as="geometry">
            <Array as="points">
              <mxPoint x="581" y="820" />
              <mxPoint x="140" y="820" />
            </Array>
          </mxGeometry>
        </mxCell>
        <mxCell id="sCwukaSVy6SD4ue5wl9c-30" value="Lambda function" style="sketch=0;outlineConnect=0;fontColor=#232F3E;gradientColor=none;fillColor=#ED7100;strokeColor=none;dashed=0;verticalLabelPosition=bottom;verticalAlign=top;align=center;html=1;fontSize=12;fontStyle=0;aspect=fixed;pointerEvents=1;shape=mxgraph.aws4.lambda_function;" vertex="1" parent="1">
          <mxGeometry x="561" y="740" width="40" height="40" as="geometry" />
        </mxCell>
        <mxCell id="sCwukaSVy6SD4ue5wl9c-31" style="edgeStyle=elbowEdgeStyle;rounded=0;orthogonalLoop=1;jettySize=auto;html=1;elbow=vertical;dashed=1;dashPattern=8 8;" edge="1" parent="1" source="sCwukaSVy6SD4ue5wl9c-33" target="sCwukaSVy6SD4ue5wl9c-28">
          <mxGeometry relative="1" as="geometry">
            <Array as="points">
              <mxPoint x="240" y="710" />
            </Array>
          </mxGeometry>
        </mxCell>
        <mxCell id="sCwukaSVy6SD4ue5wl9c-32" style="edgeStyle=orthogonalEdgeStyle;rounded=0;orthogonalLoop=1;jettySize=auto;html=1;dashed=1;dashPattern=8 8;" edge="1" parent="1" source="sCwukaSVy6SD4ue5wl9c-33" target="sCwukaSVy6SD4ue5wl9c-30">
          <mxGeometry relative="1" as="geometry">
            <Array as="points">
              <mxPoint x="140" y="710" />
              <mxPoint x="581" y="710" />
            </Array>
          </mxGeometry>
        </mxCell>
        <mxCell id="sCwukaSVy6SD4ue5wl9c-33" value="API gateway" style="sketch=0;points=[[0,0,0],[0.25,0,0],[0.5,0,0],[0.75,0,0],[1,0,0],[0,1,0],[0.25,1,0],[0.5,1,0],[0.75,1,0],[1,1,0],[0,0.25,0],[0,0.5,0],[0,0.75,0],[1,0.25,0],[1,0.5,0],[1,0.75,0]];outlineConnect=0;fontColor=#232F3E;fillColor=#E7157B;strokeColor=#ffffff;dashed=0;verticalLabelPosition=bottom;verticalAlign=top;align=center;html=1;fontSize=12;fontStyle=0;aspect=fixed;shape=mxgraph.aws4.resourceIcon;resIcon=mxgraph.aws4.api_gateway;" vertex="1" parent="1">
          <mxGeometry x="120" y="570" width="40" height="40" as="geometry" />
        </mxCell>
        <mxCell id="sCwukaSVy6SD4ue5wl9c-34" style="edgeStyle=orthogonalEdgeStyle;rounded=0;orthogonalLoop=1;jettySize=auto;html=1;dashed=1;dashPattern=8 8;" edge="1" parent="1" source="sCwukaSVy6SD4ue5wl9c-28" target="sCwukaSVy6SD4ue5wl9c-27">
          <mxGeometry relative="1" as="geometry">
            <mxPoint x="140" y="830" as="targetPoint" />
            <Array as="points">
              <mxPoint x="320" y="820" />
              <mxPoint x="140" y="820" />
            </Array>
          </mxGeometry>
        </mxCell>
        <mxCell id="sCwukaSVy6SD4ue5wl9c-35" style="edgeStyle=elbowEdgeStyle;rounded=0;orthogonalLoop=1;jettySize=auto;html=1;entryX=1;entryY=0.5;entryDx=0;entryDy=0;entryPerimeter=0;dashed=1;dashPattern=8 8;elbow=vertical;" edge="1" parent="1" source="sCwukaSVy6SD4ue5wl9c-19" target="sCwukaSVy6SD4ue5wl9c-33">
          <mxGeometry relative="1" as="geometry">
            <Array as="points">
              <mxPoint x="240" y="590" />
            </Array>
          </mxGeometry>
        </mxCell>
        <mxCell id="sCwukaSVy6SD4ue5wl9c-36" style="edgeStyle=elbowEdgeStyle;rounded=0;orthogonalLoop=1;jettySize=auto;html=1;entryX=1;entryY=0.5;entryDx=0;entryDy=0;entryPerimeter=0;dashed=1;dashPattern=8 8;elbow=vertical;" edge="1" parent="1" source="sCwukaSVy6SD4ue5wl9c-20" target="sCwukaSVy6SD4ue5wl9c-33">
          <mxGeometry relative="1" as="geometry">
            <Array as="points">
              <mxPoint x="370" y="590" />
            </Array>
          </mxGeometry>
        </mxCell>
        <mxCell id="sCwukaSVy6SD4ue5wl9c-65" style="edgeStyle=orthogonalEdgeStyle;rounded=0;orthogonalLoop=1;jettySize=auto;html=1;" edge="1" parent="1" source="sCwukaSVy6SD4ue5wl9c-41" target="sCwukaSVy6SD4ue5wl9c-48">
          <mxGeometry relative="1" as="geometry" />
        </mxCell>
        <mxCell id="sCwukaSVy6SD4ue5wl9c-41" value="" style="shape=image;html=1;verticalAlign=top;verticalLabelPosition=bottom;labelBackgroundColor=#ffffff;imageAspect=0;aspect=fixed;image=https://cdn0.iconfinder.com/data/icons/job-seeker/256/laptop_job_seeker_employee_unemployee_work_1-128.png;imageBackground=none;imageBorder=none;" vertex="1" parent="1">
          <mxGeometry x="910" y="385" width="80" height="80" as="geometry" />
        </mxCell>
        <mxCell id="sCwukaSVy6SD4ue5wl9c-66" style="edgeStyle=orthogonalEdgeStyle;rounded=0;orthogonalLoop=1;jettySize=auto;html=1;" edge="1" parent="1" source="sCwukaSVy6SD4ue5wl9c-48" target="sCwukaSVy6SD4ue5wl9c-50">
          <mxGeometry relative="1" as="geometry" />
        </mxCell>
        <mxCell id="sCwukaSVy6SD4ue5wl9c-48" value="Application Load Balancer" style="sketch=0;outlineConnect=0;fontColor=#232F3E;gradientColor=none;strokeColor=#ffffff;fillColor=#5A30B5;dashed=0;verticalLabelPosition=middle;verticalAlign=bottom;align=center;html=1;whiteSpace=wrap;fontSize=10;fontStyle=1;spacing=3;shape=mxgraph.aws4.productIcon;prIcon=mxgraph.aws4.application_load_balancer;" vertex="1" parent="1">
          <mxGeometry x="1070" y="370" width="80" height="110" as="geometry" />
        </mxCell>
        <mxCell id="sCwukaSVy6SD4ue5wl9c-67" style="edgeStyle=orthogonalEdgeStyle;rounded=0;orthogonalLoop=1;jettySize=auto;html=1;" edge="1" parent="1" source="sCwukaSVy6SD4ue5wl9c-50" target="sCwukaSVy6SD4ue5wl9c-53">
          <mxGeometry relative="1" as="geometry" />
        </mxCell>
        <mxCell id="sCwukaSVy6SD4ue5wl9c-50" value="Auto Scaling group" style="points=[[0,0],[0.25,0],[0.5,0],[0.75,0],[1,0],[1,0.25],[1,0.5],[1,0.75],[1,1],[0.75,1],[0.5,1],[0.25,1],[0,1],[0,0.75],[0,0.5],[0,0.25]];outlineConnect=0;gradientColor=none;html=1;whiteSpace=wrap;fontSize=12;fontStyle=0;container=1;pointerEvents=0;collapsible=0;recursiveResize=0;shape=mxgraph.aws4.groupCenter;grIcon=mxgraph.aws4.group_auto_scaling_group;grStroke=1;strokeColor=#D86613;fillColor=#F5F5F5;verticalAlign=top;align=center;fontColor=#D86613;dashed=1;spacingTop=25;" vertex="1" parent="1">
          <mxGeometry x="1210" y="260" width="130" height="330" as="geometry" />
        </mxCell>
        <mxCell id="sCwukaSVy6SD4ue5wl9c-47" value="Amazon EC2" style="sketch=0;outlineConnect=0;fontColor=#232F3E;gradientColor=none;strokeColor=#ffffff;fillColor=#ED7100;dashed=0;verticalLabelPosition=middle;verticalAlign=bottom;align=center;html=1;whiteSpace=wrap;fontSize=10;fontStyle=1;spacing=3;shape=mxgraph.aws4.productIcon;prIcon=mxgraph.aws4.ec2;aspect=fixed;noLabel=0;container=0;backgroundOutline=0;comic=0;" vertex="1" parent="sCwukaSVy6SD4ue5wl9c-50">
          <mxGeometry x="25" y="205" width="80" height="100" as="geometry">
            <mxRectangle x="25" y="265" width="100" height="30" as="alternateBounds" />
          </mxGeometry>
        </mxCell>
        <mxCell id="sCwukaSVy6SD4ue5wl9c-46" value="Amazon EC2" style="sketch=0;outlineConnect=0;fontColor=#232F3E;gradientColor=none;strokeColor=#ffffff;fillColor=#ED7100;dashed=0;verticalLabelPosition=middle;verticalAlign=bottom;align=center;html=1;whiteSpace=wrap;fontSize=10;fontStyle=1;spacing=3;shape=mxgraph.aws4.productIcon;prIcon=mxgraph.aws4.ec2;aspect=fixed;perimeterSpacing=0;" vertex="1" parent="sCwukaSVy6SD4ue5wl9c-50">
          <mxGeometry x="25" y="70" width="80" height="100" as="geometry" />
        </mxCell>
        <mxCell id="sCwukaSVy6SD4ue5wl9c-69" style="edgeStyle=orthogonalEdgeStyle;rounded=0;orthogonalLoop=1;jettySize=auto;html=1;" edge="1" parent="1" source="sCwukaSVy6SD4ue5wl9c-52" target="sCwukaSVy6SD4ue5wl9c-55">
          <mxGeometry relative="1" as="geometry" />
        </mxCell>
        <mxCell id="sCwukaSVy6SD4ue5wl9c-52" value="AWS Lambda" style="sketch=0;outlineConnect=0;fontColor=#232F3E;gradientColor=none;strokeColor=#ffffff;fillColor=#ED7100;dashed=0;verticalLabelPosition=middle;verticalAlign=bottom;align=center;html=1;whiteSpace=wrap;fontSize=10;fontStyle=1;spacing=3;shape=mxgraph.aws4.productIcon;prIcon=mxgraph.aws4.lambda;" vertex="1" parent="1">
          <mxGeometry x="1540" y="375" width="80" height="100" as="geometry" />
        </mxCell>
        <mxCell id="sCwukaSVy6SD4ue5wl9c-68" style="edgeStyle=orthogonalEdgeStyle;rounded=0;orthogonalLoop=1;jettySize=auto;html=1;" edge="1" parent="1" source="sCwukaSVy6SD4ue5wl9c-53" target="sCwukaSVy6SD4ue5wl9c-52">
          <mxGeometry relative="1" as="geometry" />
        </mxCell>
        <mxCell id="sCwukaSVy6SD4ue5wl9c-53" value="Amazon API Gateway" style="sketch=0;outlineConnect=0;fontColor=#232F3E;gradientColor=none;strokeColor=#ffffff;fillColor=#E7157B;dashed=0;verticalLabelPosition=middle;verticalAlign=bottom;align=center;html=1;whiteSpace=wrap;fontSize=10;fontStyle=1;spacing=3;shape=mxgraph.aws4.productIcon;prIcon=mxgraph.aws4.api_gateway;" vertex="1" parent="1">
          <mxGeometry x="1400" y="370" width="80" height="110" as="geometry" />
        </mxCell>
        <mxCell id="sCwukaSVy6SD4ue5wl9c-55" value="Amazon DynamoDB" style="sketch=0;outlineConnect=0;fontColor=#232F3E;gradientColor=none;strokeColor=#ffffff;fillColor=#C925D1;dashed=0;verticalLabelPosition=middle;verticalAlign=bottom;align=center;html=1;whiteSpace=wrap;fontSize=10;fontStyle=1;spacing=3;shape=mxgraph.aws4.productIcon;prIcon=mxgraph.aws4.dynamodb;" vertex="1" parent="1">
          <mxGeometry x="1670" y="370" width="80" height="110" as="geometry" />
        </mxCell>
        <mxCell id="sCwukaSVy6SD4ue5wl9c-70" style="edgeStyle=orthogonalEdgeStyle;rounded=0;orthogonalLoop=1;jettySize=auto;html=1;" edge="1" parent="1" source="sCwukaSVy6SD4ue5wl9c-56" target="sCwukaSVy6SD4ue5wl9c-64">
          <mxGeometry relative="1" as="geometry" />
        </mxCell>
        <mxCell id="sCwukaSVy6SD4ue5wl9c-56" value="" style="shape=image;html=1;verticalAlign=top;verticalLabelPosition=bottom;labelBackgroundColor=#ffffff;imageAspect=0;aspect=fixed;image=https://cdn0.iconfinder.com/data/icons/job-seeker/256/laptop_job_seeker_employee_unemployee_work_1-128.png;imageBackground=none;imageBorder=none;" vertex="1" parent="1">
          <mxGeometry x="910" y="825" width="80" height="80" as="geometry" />
        </mxCell>
        <mxCell id="sCwukaSVy6SD4ue5wl9c-73" style="edgeStyle=orthogonalEdgeStyle;rounded=0;orthogonalLoop=1;jettySize=auto;html=1;" edge="1" parent="1" source="sCwukaSVy6SD4ue5wl9c-61" target="sCwukaSVy6SD4ue5wl9c-63">
          <mxGeometry relative="1" as="geometry" />
        </mxCell>
        <mxCell id="sCwukaSVy6SD4ue5wl9c-61" value="AWS Lambda" style="sketch=0;outlineConnect=0;fontColor=#232F3E;gradientColor=none;strokeColor=#ffffff;fillColor=#ED7100;dashed=0;verticalLabelPosition=middle;verticalAlign=bottom;align=center;html=1;whiteSpace=wrap;fontSize=10;fontStyle=1;spacing=3;shape=mxgraph.aws4.productIcon;prIcon=mxgraph.aws4.lambda;" vertex="1" parent="1">
          <mxGeometry x="1400" y="815" width="80" height="100" as="geometry" />
        </mxCell>
        <mxCell id="sCwukaSVy6SD4ue5wl9c-72" style="edgeStyle=orthogonalEdgeStyle;rounded=0;orthogonalLoop=1;jettySize=auto;html=1;" edge="1" parent="1" source="sCwukaSVy6SD4ue5wl9c-62" target="sCwukaSVy6SD4ue5wl9c-61">
          <mxGeometry relative="1" as="geometry" />
        </mxCell>
        <mxCell id="sCwukaSVy6SD4ue5wl9c-62" value="Amazon API Gateway" style="sketch=0;outlineConnect=0;fontColor=#232F3E;gradientColor=none;strokeColor=#ffffff;fillColor=#E7157B;dashed=0;verticalLabelPosition=middle;verticalAlign=bottom;align=center;html=1;whiteSpace=wrap;fontSize=10;fontStyle=1;spacing=3;shape=mxgraph.aws4.productIcon;prIcon=mxgraph.aws4.api_gateway;" vertex="1" parent="1">
          <mxGeometry x="1235" y="810" width="80" height="110" as="geometry" />
        </mxCell>
        <mxCell id="sCwukaSVy6SD4ue5wl9c-63" value="Amazon DynamoDB" style="sketch=0;outlineConnect=0;fontColor=#232F3E;gradientColor=none;strokeColor=#ffffff;fillColor=#C925D1;dashed=0;verticalLabelPosition=middle;verticalAlign=bottom;align=center;html=1;whiteSpace=wrap;fontSize=10;fontStyle=1;spacing=3;shape=mxgraph.aws4.productIcon;prIcon=mxgraph.aws4.dynamodb;" vertex="1" parent="1">
          <mxGeometry x="1540" y="810" width="80" height="110" as="geometry" />
        </mxCell>
        <mxCell id="sCwukaSVy6SD4ue5wl9c-71" style="edgeStyle=orthogonalEdgeStyle;rounded=0;orthogonalLoop=1;jettySize=auto;html=1;" edge="1" parent="1" source="sCwukaSVy6SD4ue5wl9c-64" target="sCwukaSVy6SD4ue5wl9c-62">
          <mxGeometry relative="1" as="geometry" />
        </mxCell>
        <mxCell id="sCwukaSVy6SD4ue5wl9c-64" value="Amazon S3" style="sketch=0;outlineConnect=0;fontColor=#232F3E;gradientColor=none;strokeColor=#ffffff;fillColor=#7AA116;dashed=0;verticalLabelPosition=middle;verticalAlign=bottom;align=center;html=1;whiteSpace=wrap;fontSize=10;fontStyle=1;spacing=3;shape=mxgraph.aws4.productIcon;prIcon=mxgraph.aws4.s3;" vertex="1" parent="1">
          <mxGeometry x="1070" y="815" width="80" height="100" as="geometry" />
        </mxCell>
      </root>
    </mxGraphModel>
  </diagram>
</mxfile>
